<svg id="Layer_1" data-name="Layer 1" xmlns="http://www.w3.org/2000/svg" viewBox="0 0 1813.868 185.442">
  <defs>
    <style>
      .cls-1 {
        fill: #fff;
      }
    </style>
  </defs>
  <title>05987a6e-927c-4431-bbc6-cd5f82d5a61a</title>
  <g id="Text">
    <path class="cls-1" d="M0,22.576H140.492q13.7,3.429,13.707,17.536v94.939L114.49,159.44V51.8H97.76v81.635L56.439,161.053V51.8H39.708V156.215L0,182.217Z"/>
    <path class="cls-1" d="M200.153,163.472H164.677V24.592L200.153,0Z"/>
    <path class="cls-1" d="M317.464,155.208q-2.825,8.267-13.3,8.264H226.154q-15.321,0-15.319-16.528V32.856q4.838-10.281,15.319-10.28h91.31v.806L283.2,53.617H245.1V132.43h38.1V96.551h-34.67L278.36,68.13h39.1Z"/>
    <path class="cls-1" d="M398.089,100.381l-37.29,23.18v37.088H326.935V105.823l71.153-43.74V22.576h35.476V185.442l-35.476-22.978ZM326.935,22.576H360.8V77.4L326.935,98.768Z"/>
    <path class="cls-1" d="M445.253,22.576H540.8l26,32.654h-47.57v103.2l-35.073,26.2V55.23h-38.9Z"/>
    <path class="cls-1" d="M575.866,22.576h35.677V58.858l29.63,16.326v39.507L575.866,80.224Zm71.153,0h37.088V162.464H589.17l22.374-32.856h35.476Z"/>
    <path class="cls-1" d="M743.968,22.576H884.461q13.7,3.429,13.707,17.536v94.939L858.458,159.44V51.8h-16.73v81.635l-41.321,27.614V51.8h-16.73V156.215l-39.708,26Z"/>
    <path class="cls-1" d="M908.243,22.777h96.551q12.293,3.431,11.691,17.536V163.673H981.009V98.97l-37.291,18.947v65.51L908.243,163.27V101.388l72.766-39.305V52.207H943.718V75.589L908.243,94.938Z"/>
    <path class="cls-1" d="M1060.625,163.472h-35.475V24.592L1060.625,0Z"/>
    <path class="cls-1" d="M1071.912,22.777h33.057V50.191l40.515,35.879V22.777h33.057V163.472h-33.46V131.221l-40.112-34.669v66.92h-33.057Z"/>
    <path class="cls-1" d="M1188.012,22.576h113.28L1284.361,51h-63.494v32.05h31.444l11.086,28.421h-42.53v52.206l-32.856,20.157Z"/>
    <path class="cls-1" d="M1342.814,115.5v46.965l-34.267,22.172V23.785l34.267,32.654V75.79L1363.373,89.7l16.73-10.884V55.028h-32.251l-34.871-32.452H1404.9q12.5,6.453,12.5,22.172v52.81l-22.979,12.7,22.777,15.118v40.113l-31.041,19.349V144.725Z"/>
    <path class="cls-1" d="M1425.454,22.777H1522q12.293,3.431,11.691,17.536V163.673h-35.476V98.97l-37.289,18.947v65.51l-35.476-20.157V101.388l72.765-39.305V52.207H1460.93V75.589l-35.476,19.349Z"/>
    <path class="cls-1" d="M1542.763,22.576h140.492q13.705,3.429,13.707,17.536v94.939l-39.708,24.389V51.8h-16.73v81.635L1599.2,161.053V51.8h-16.73V156.215l-39.709,26Z"/>
    <path class="cls-1" d="M1705.425,22.576h78.813l29.63,32.25H1741.3V69.944h26.607l27.614,32.049H1741.3v30.236h41.523l29.429,31.444H1705.425Z"/>
  </g>
</svg>
